<?xml version="1.0" standalone="no"?><!DOCTYPE svg PUBLIC "-//W3C//DTD SVG 1.1//EN" "http://www.w3.org/Graphics/SVG/1.1/DTD/svg11.dtd"><svg t="1587826107187" class="icon" viewBox="0 0 1024 1024" version="1.1" xmlns="http://www.w3.org/2000/svg" p-id="3115" width="200" height="200" xmlns:xlink="http://www.w3.org/1999/xlink"><defs><style type="text/css"></style></defs><path d="M456.704 269.824L399.36 344.576H108.544c-36.864 0-67.072 30.208-67.072 67.072 0 36.864 30.208 67.072 67.072 67.072h135.168c-9.728 11.264-15.36 25.6-15.36 41.472 0 29.184 20.48 54.272 47.616 61.44-9.728 11.264-15.36 25.6-15.36 40.96 0 34.816 28.16 62.976 62.976 62.976h2.048c-11.264 11.264-17.92 27.136-17.92 44.032 0 34.816 28.672 62.976 62.976 62.976h262.144l54.784-54.784 105.472-18.432v78.336h146.944v-471.04H793.6v25.6l1.024 195.072-26.112 3.584-20.992-176.128c-103.424-35.328-180.736-110.08-290.816-104.96z" fill="#bfbfbf" p-id="3116"></path></svg>